<svg version="1.1" xmlns="http://www.w3.org/2000/svg" xmlns:xlink="http://www.w3.org/1999/xlink" preserveAspectRatio="xMidYMid meet" viewBox="693 292 174 154"><g data-item-type="text" data-item="Business" id="logo__item--business" class="logo__item">
                <g class="logo__item__inner" transform="translate(696.8359375 443.9456195166256) scale(1 1) rotate(0 0 0)">
                    <text data-part-id="logo__item--business" dy="0" dominant-baseline="auto" alignment-baseline="auto" font-family="Montserrat" font-size="32px" fill="#0E6C37" letter-spacing="0" font-weight="bold" font-style="normal" data-font-family="Montserrat" data-font-weight="bold" data-font-style="normal" data-ttf-url="/builder_assets/fontsttf/font-montserrat-bold-normal.ttf" data-font-filename="montserrat-bold-normal">venkatesh</text>
                </g>
            </g><g data-item-type="image" data-item="Image" data-logo-item="" id="logo__item--logo_0" class="logo__item">
    <g class="logo__item__inner" transform="translate(690.2519875719793 278.5) scale(0.5305039859370897 0.5305039859370897) rotate(0 0 0)">
        
<g>
	<path fill="#0E6C37" d="M209.8,82.4c-5.3-11.1-15.8-30.4-33.4-51c0,0,17.1,28.4,26.5,54.8c1.3,4.5,2.1,9,2.2,13.4   c0,0,3.9,24.6-13.3,42.8c0,0-17.2,25.5-15.3,49.7c7.8,0,22.4,1.2,25.3,10c0,0,8.1-0.4,15.2,6.7c0,0-19.2,0.8-37.4,16   c0,0-26.3,16.3-64.7,6.2c0,0-8.6-3.9-18.3-1.9H80.5l17.9,5.8c16.5,13.9,37.8,22.3,61,22.3c52.2,0,94.6-42.4,94.6-94.6   C254,128.7,236.3,99.2,209.8,82.4z" data-part-id="logo__item--logo_0__0"></path>
	<path fill="#40B564" d="M83.5,214.5c0,0,0.3-0.1,0.8-0.3c2.1-0.6,4.2-1.3,6.5-2.1c8.9-2.8,23.7-7.1,31.2-7.8c0,0,4-1,4-10.1   c0,0,5.1-33.6,19.2-56.8c0,0,14.2-31,21.5-69.4c-2.4-0.2-4.9-0.3-7.4-0.3c-52.2,0-94.6,42.4-94.6,94.6c0,16.3,4.2,31.6,11.5,45   c-7,3.1-21.8,7-48.4,3c0,0,13.5,16.3,55.4,4.1C83.4,214.5,83.4,214.5,83.5,214.5z" data-part-id="logo__item--logo_0__1"></path>
	<path fill="#CFCECF" d="M166.8,178.6c-0.4-18.5,8.8-28.8,8.8-28.8c17.7-19.2,19.6-38,19.6-38c3-21.8-9-41-9-41   c11.1,47-5,62.7-5,62.7C156.9,164.4,166.8,178.6,166.8,178.6z" data-part-id="logo__item--logo_0__2"></path>
</g>

    </g>
</g></svg>